:SAMPLES-PER-SECOND 24
:FULLY-SPECIFIED
:DEGREES
476
root  11.613 38.8455 32.3393 -161.384 -69.1297 175.896
RightUpLeg  -26.6872 -4.97053 -3.25162
RightLeg  40.7033 -0.538473 -0.770434
RightFoot  -15.1789 -0.0383726 1.81378
RightToes  -2.08645e-008 3.77894e-005 6.81332e-007
Spine  17.8773 2.98504 -0.98437
Spine1  0.890192 3.94376 -5.50799
HEad  -40.6833 6.26514 1.22971
LeftShoulder1  7.03184 -13.1842 -36.0888
LeftArm  13.706 45.1286 -13.4519
LeftForeArm  162.082 -65.1264 -158.042
LeftHand  -0.139392 -3.07112 2.15609
RightShoulder  4.44372 7.12364 35.8963
RightArm  16.9759 -32.6279 23.6517
RightForeArm  146.948 76.1639 136.75
RightHand  -1.06541 7.22132 -10.1106
LeftUpLeg  -33.0385 -12.0994 14.6695
LeftLeg  21.0729 -0.915447 -0.0374081
LeftFoot  -7.79851 0.502881 -15.0739
LeftToes  1.24767e-006 1.47042e-008 1.32732e-009
477
root  10.976 37.5463 33.2421 -162.055 -63.5192 177.361
RightUpLeg  -32.7049 -11.9791 0.175776
RightLeg  50.5661 0.224568 -0.065897
RightFoot  -19.1425 -0.102073 0.549633
RightToes  -2.08645e-008 3.77894e-005 6.81332e-007
Spine  21.7131 2.70223 -0.149999
Spine1  -2.20659 3.49364 -6.8408
HEad  -42.9993 -2.52618 4.81879
LeftShoulder1  7.0852 -13.2574 -36.2355
LeftArm  11.8265 40.9585 -12.3618
LeftForeArm  156.51 -69.4189 -152.549
LeftHand  -0.213854 -3.41508 3.05698
RightShoulder  4.45109 7.16508 35.8062
RightArm  17.655 -27.5212 26.0345
RightForeArm  139.091 77.958 128.53
RightHand  -1.23336 7.03153 -11.8232
LeftUpLeg  -38.6028 -16.4766 19.4888
LeftLeg  28.9324 -9.23324 -5.32195
LeftFoot  -11.9684 -0.0275307 -16.8214
LeftToes  1.24767e-006 1.47042e-008 1.32732e-009
478
root  10.1048 36.1582 34.0439 -161.072 -57.8606 175.905
RightUpLeg  -34.7782 -8.42027 -2.7245
RightLeg  56.105 -0.445658 -1.15503
RightFoot  -25.137 -0.0161944 1.27463
RightToes  -2.08645e-008 3.77894e-005 6.81332e-007
Spine  23.1142 1.86062 0.256091
Spine1  -2.23166 3.26237 -9.46729
HEad  -44.3037 -14.0251 7.94608
LeftShoulder1  8.18342 -14.1027 -40.259
LeftArm  8.52609 29.2729 -10.9202
LeftForeArm  137.238 -76.8688 -132.01
LeftHand  -0.49118 -2.66628 7.30028
RightShoulder  4.67621 7.33612 37.1873
RightArm  14.1566 -19.3524 31.0954
RightForeArm  87.1614 80.1216 71.6307
RightHand  -1.25224 6.85939 -12.1547
LeftUpLeg  -41.4688 -13.3938 15.305
LeftLeg  41.3314 -8.33185 -7.40292
LeftFoot  -19.102 -0.801135 -13.4411
LeftToes  1.24767e-006 1.47042e-008 1.32732e-009
479
root  9.09788 35.1589 34.6544 -163.346 -50.0506 176.271
RightUpLeg  -33.4286 4.61528 -7.36646
RightLeg  57.9646 -4.25384 -7.70713
RightFoot  -30.8796 0.830662 6.1079
RightToes  -2.08645e-008 3.77894e-005 6.81332e-007
Spine  22.5056 1.71277 -2.25438
Spine1  -0.0188392 3.2502 -9.61878
HEad  -45.4936 -23.6729 11.6021
LeftShoulder1  9.46312 -14.9455 -44.7443
LeftArm  6.1488 14.6172 -13.3774
LeftForeArm  103.174 -80.3196 -95.0962
LeftHand  -0.64444 -0.904802 11.9647
RightShoulder  4.97781 7.52863 39.0964
RightArm  9.30337 -13.7632 37.0452
RightForeArm  54.1162 74.1416 33.7034
RightHand  -1.75026 8.75187 -14.6834
LeftUpLeg  -40.5347 -11.839 11.119
LeftLeg  50.0715 -1.86819 -1.93649
LeftFoot  -25.3748 -1.3219 -11.8917
LeftToes  1.24767e-006 1.47042e-008 1.32732e-009
480
root  7.8118 35.0231 35.1472 -166.287 -40.536 179.205
RightUpLeg  -32.1236 14.1455 -8.95495
RightLeg  55.532 -5.70766 -9.04973
RightFoot  -31.999 0.731709 5.0911
RightToes  -2.08645e-008 3.77894e-005 6.81332e-007
Spine  19.4227 0.817264 -7.2013
Spine1  0.407451 0.774956 -4.50731
HEad  -44.8788 -26.5383 15.495
LeftShoulder1  9.20095 -14.7662 -43.8656
LeftArm  5.41581 4.14591 -23.1067
LeftForeArm  112.922 -80.4302 -98.9607
LeftHand  -0.684916 -1.7207 11.4964
RightShoulder  5.01534 7.55378 39.3256
RightArm  11.0588 -19.2144 37.0629
RightForeArm  76.5188 78.7195 58.0262
RightHand  -1.18135 8.91175 -9.82685
LeftUpLeg  -37.9485 -10.0505 9.39176
LeftLeg  53.4953 2.39911 3.98254
LeftFoot  -27.1253 -1.52789 -12.1568
LeftToes  1.24767e-006 1.47042e-008 1.32732e-009
481
root  6.11506 36.4611 35.5442 -167.166 -29.6547 -175.604
RightUpLeg  -31.5522 14.4089 -9.61921
RightLeg  43.152 4.082 3.48847
RightFoot  -23.5557 0.353472 4.17726
RightToes  -2.08645e-008 3.77894e-005 6.81332e-007
Spine  15.5826 -1.81587 -10.1968
Spine1  -1.6837 -3.62815 4.52771
HEad  -42.6207 -24.8828 19.024
LeftShoulder1  7.89275 -13.8467 -39.3073
LeftArm  6.87394 -0.541339 -34.8184
LeftForeArm  151.151 -78.2035 -129.708
LeftHand  -0.605393 -4.1733 7.64196
RightShoulder  4.61814 7.29904 36.8058
RightArm  19.1128 -27.8124 29.2717
RightForeArm  143.277 78.1163 127.427
RightHand  -0.999538 9.04245 -8.39481
LeftUpLeg  -32.6907 -5.19535 9.28415
LeftLeg  47.0481 6.55136 7.9489
LeftFoot  -24.678 -1.31441 -12.4132
LeftToes  1.24767e-006 1.47042e-008 1.32732e-009
482
root  4.44693 38.94 35.5606 -167.656 -16.3479 -169.306
RightUpLeg  -28.8657 4.20725 -5.58577
RightLeg  28.9408 17.0931 9.78657
RightFoot  -9.14017 -0.367891 15.804
RightToes  -2.08645e-008 3.77894e-005 6.81332e-007
Spine  13.23 -3.2336 -11.6108
Spine1  -3.36258 -6.31897 14.6099
HEad  -39.4562 -25.1772 22.2053
LeftShoulder1  6.93426 -13.1455 -35.613
LeftArm  10.9594 0.30118 -42.9898
LeftForeArm  165.429 -75.0417 -143.441
LeftHand  -0.457083 -2.65191 6.82025
RightShoulder  4.12354 6.96241 33.5108
RightArm  23.7113 -29.6217 22.4583
RightForeArm  155.446 75.2194 141.129
RightHand  -1.19314 9.12975 -9.88302
LeftUpLeg  -23.2175 0.644894 11.4201
LeftLeg  33.7915 13.8787 10.1575
LeftFoot  -17.2343 -0.630038 -14.177
LeftToes  1.24767e-006 1.47042e-008 1.32732e-009
483
root  2.96666 41.9924 35.1593 -167.552 -1.05847 -162.535
RightUpLeg  -29.8676 -9.70138 3.12793
RightLeg  30.6292 11.7092 6.80046
RightFoot  -1.22741 -1.55523 17.371
RightToes  -2.08645e-008 3.77894e-005 6.81332e-007
Spine  10.5166 -2.71818 -9.69488
Spine1  -1.57149 -7.05922 22.3161
HEad  -34.5757 -30.2878 24.8533
LeftShoulder1  6.44215 -12.7532 -33.6232
LeftArm  14.6707 5.53726 -46.034
LeftForeArm  163.683 -73.8357 -145.913
LeftHand  -0.459607 -2.83399 6.76253
RightShoulder  4.08234 6.94531 33.1775
RightArm  25.248 -26.5186 19.0892
RightForeArm  145.192 76.5612 134.928
RightHand  -0.82059 7.40708 -7.73763
LeftUpLeg  -10.8623 7.37624 15.5105
LeftLeg  16.6444 24.0102 8.12264
LeftFoot  0.714417 1.67137 -15.9707
LeftToes  1.24767e-006 1.47042e-008 1.32732e-009
484
root  1.68753 44.7716 34.5267 -164.909 12.352 -157.623
RightUpLeg  -38.2037 -9.60095 3.0906
RightLeg  53.3158 0.779706 0.588836
RightFoot  -4.82258 -0.461712 7.21063
RightToes  -2.08645e-008 3.77894e-005 6.81332e-007
Spine  8.28663 -2.20783 -5.12073
Spine1  -0.241415 -7.298 26.117
HEad  -29.8836 -39.0309 27.1525
LeftShoulder1  6.30666 -12.5677 -33.2392
LeftArm  16.9955 14.1551 -42.1808
LeftForeArm  171.804 -71.6346 -151.132
LeftHand  -0.374633 -4.14582 4.80609
RightShoulder  4.34019 7.15997 34.8047
RightArm  27.8264 -20.88 17.2645
RightForeArm  139.822 77.3024 130.915
RightHand  -0.172862 8.14971 -1.9816
LeftUpLeg  -1.16828 11.8537 18.7022
LeftLeg  0.0936797 31.0437 0.121111
LeftFoot  24.5722 4.8376 -15.3635
LeftToes  1.24767e-006 1.47042e-008 1.32732e-009
485
root  0.601293 46.573 33.991 -161.758 20.0215 -155.462
RightUpLeg  -47.6213 -9.54821 -5.20778
RightLeg  82.8069 0.0696863 -1.07828
RightFoot  -8.48355 -0.0917501 1.55716
RightToes  -2.08645e-008 3.77894e-005 6.81332e-007
Spine  9.08828 -2.6904 -0.837165
Spine1  -2.12419 -7.496 28.1926
HEad  -29.606 -48.2521 30.2538
LeftShoulder1  6.4009 -12.6635 -33.5855
LeftArm  20.2954 24.438 -35.0316
LeftForeArm  179.539 -69.235 -155.597
LeftHand  -0.316437 -3.03599 4.6143
RightShoulder  4.17459 7.0028 33.8449
RightArm  30.5891 -14.0768 19.5146
RightForeArm  146.506 77.0415 133.52
RightHand  0.595786 11.486 3.6246
LeftUpLeg  0.329915 11.3644 19.1906
LeftLeg  -2.68011 22.9268 -1.84502
LeftFoot  36.7648 7.3504 -16.8873
LeftToes  1.24767e-006 1.47042e-008 1.32732e-009
486
root  -0.529625 47.5024 33.6183 -158.919 24.7677 -153.307
RightUpLeg  -53.0057 -12.1568 -18.5526
RightLeg  105.938 1.29921 -2.89462
RightFoot  -11.9149 -0.0935761 -2.60334
RightToes  -2.08645e-008 3.77894e-005 6.81332e-007
Spine  9.90408 -2.9433 6.03567
Spine1  -2.88815 -6.64996 25.9712
HEad  -34.7778 -55.8659 36.0736
LeftShoulder1  6.3531 -12.8288 -32.8947
LeftArm  23.9424 32.8854 -30.0489
LeftForeArm  171.448 -70.615 -152.714
LeftHand  -0.404373 -3.49522 5.53829
RightShoulder  3.72223 6.50021 31.3143
RightArm  32.2366 -6.86654 24.6188
RightForeArm  145.579 77.6878 130.741
RightHand  0.453556 10.9196 2.79263
LeftUpLeg  -2.56303 11.0929 19.3193
LeftLeg  3.44503 8.66745 0.672777
LeftFoot  33.7134 7.23131 -17.8519
LeftToes  1.24767e-006 1.47042e-008 1.32732e-009
